# xmcd CD database file
#
# Track frame offsets:
#	150
#	18665
#	36665
#	60315
#	81770
#	107025
#	123065
#	139920
#	161335
#	180875
#	205060
#	221805
#
# Disc length: 3193 seconds
#
# Revision: 0
# Processed by: cddbd v1.5.2PL0 Copyright (c) Steve Scherf et al.
# Submitted via: Feurio! 1.68 - http://www.feurio.com
#
DISCID=9f0c770c
DTITLE=Various Artist - A Steppers Frenzie
DYEAR=1900
DGENRE=R&B
TTITLE0=The O'Jays - Let's Ride
TTITLE1=Bllu Cantrell - Swingin'
TTITLE2=Blu Cantrell - Blu Is The Mood
TTITLE3=Jill Scott - He Loves Me
TTITLE4=Michael Jackson - Someone
TTITLE5=Ludacris - Area Codes
TTITLE6=Aaliyah - Loose Rap
TTITLE7=The Isley Brothers - Ernie's Jam
TTITLE8=The Isley Brothers - Secret Lover
TTITLE9=Keven Toney - All Day Long
TTITLE10=Shaggy  - Freaky Girl
TTITLE11=Lois Lane - Chinese Checkers
EXTD=
EXTT0=
EXTT1=
EXTT2=
EXTT3=
EXTT4=
EXTT5=
EXTT6=
EXTT7=
EXTT8=
EXTT9=
EXTT10=
EXTT11=
PLAYORDER=
